<mxfile host="65bd71144e">
    <diagram id="639PCF9Emw0u_D9ccuQ9" name="Page-1">
        <mxGraphModel dx="1187" dy="597" grid="1" gridSize="10" guides="1" tooltips="1" connect="1" arrows="1" fold="1" page="1" pageScale="1" pageWidth="827" pageHeight="1169" background="#ffffff" math="0" shadow="0">
            <root>
                <mxCell id="0"/>
                <mxCell id="1" parent="0"/>
                <mxCell id="62" value="" style="shape=flexArrow;endArrow=classic;html=1;exitX=1;exitY=0.5;exitDx=0;exitDy=0;entryX=0.5;entryY=0;entryDx=0;entryDy=0;fillColor=#f5f5f5;strokeColor=#666666;" parent="1" source="21" target="48" edge="1">
                    <mxGeometry width="50" height="50" relative="1" as="geometry">
                        <mxPoint x="430" y="680" as="sourcePoint"/>
                        <mxPoint x="480" y="630" as="targetPoint"/>
                        <Array as="points">
                            <mxPoint x="400" y="505"/>
                            <mxPoint x="400" y="315"/>
                        </Array>
                    </mxGeometry>
                </mxCell>
                <mxCell id="66" value="contains&lt;br&gt;multiple" style="edgeLabel;html=1;align=center;verticalAlign=middle;resizable=0;points=[];rotation=-90;" parent="62" vertex="1" connectable="0">
                    <mxGeometry x="-0.0313" y="3" relative="1" as="geometry">
                        <mxPoint x="3" as="offset"/>
                    </mxGeometry>
                </mxCell>
                <mxCell id="2" value="File Header" style="rounded=0;whiteSpace=wrap;html=1;rotation=-90;fillColor=#ffe6cc;strokeColor=#d79b00;" parent="1" vertex="1">
                    <mxGeometry x="90" y="110" width="180" height="40" as="geometry"/>
                </mxCell>
                <mxCell id="3" value="File Magic" style="rounded=0;whiteSpace=wrap;html=1;fillColor=#ffe6cc;strokeColor=#d79b00;" parent="1" vertex="1">
                    <mxGeometry x="200" y="40" width="160" height="30" as="geometry"/>
                </mxCell>
                <mxCell id="4" value="Definition Section Offset" style="rounded=0;whiteSpace=wrap;html=1;fillColor=#ffe6cc;strokeColor=#d79b00;" parent="1" vertex="1">
                    <mxGeometry x="200" y="100" width="160" height="30" as="geometry"/>
                </mxCell>
                <mxCell id="5" value="Ringbuffer Section Offset" style="rounded=0;whiteSpace=wrap;html=1;fillColor=#ffe6cc;strokeColor=#d79b00;" parent="1" vertex="1">
                    <mxGeometry x="200" y="130" width="160" height="30" as="geometry"/>
                </mxCell>
                <mxCell id="6" value="Stack Section Offset" style="rounded=0;whiteSpace=wrap;html=1;fillColor=#ffe6cc;strokeColor=#d79b00;" parent="1" vertex="1">
                    <mxGeometry x="200" y="160" width="160" height="30" as="geometry"/>
                </mxCell>
                <mxCell id="7" value="File Header CRC" style="rounded=0;whiteSpace=wrap;html=1;fillColor=#dae8fc;strokeColor=#6c8ebf;" parent="1" vertex="1">
                    <mxGeometry x="200" y="190" width="160" height="30" as="geometry"/>
                </mxCell>
                <mxCell id="8" value="Definition Section" style="rounded=0;whiteSpace=wrap;html=1;rotation=-90;fillColor=#ffe6cc;strokeColor=#d79b00;" parent="1" vertex="1">
                    <mxGeometry x="150" y="230" width="60" height="40" as="geometry"/>
                </mxCell>
                <mxCell id="9" value="Definition Body Size" style="rounded=0;whiteSpace=wrap;html=1;fillColor=#ffe6cc;strokeColor=#d79b00;" parent="1" vertex="1">
                    <mxGeometry x="200" y="220" width="160" height="30" as="geometry"/>
                </mxCell>
                <mxCell id="10" value="Definition Body" style="rounded=0;whiteSpace=wrap;html=1;fillColor=#e1d5e7;strokeColor=#9673a6;" parent="1" vertex="1">
                    <mxGeometry x="200" y="250" width="160" height="30" as="geometry"/>
                </mxCell>
                <mxCell id="12" value="Ringbuffer Mutex" style="rounded=0;whiteSpace=wrap;html=1;fillColor=#f8cecc;strokeColor=#b85450;" parent="1" vertex="1">
                    <mxGeometry x="200" y="280" width="160" height="30" as="geometry"/>
                </mxCell>
                <mxCell id="13" value="Ringbuffer Body Size" style="rounded=0;whiteSpace=wrap;html=1;fillColor=#ffe6cc;strokeColor=#d79b00;" parent="1" vertex="1">
                    <mxGeometry x="200" y="310" width="160" height="30" as="geometry"/>
                </mxCell>
                <mxCell id="14" value="Wrappe Counter" style="rounded=0;whiteSpace=wrap;html=1;fillColor=#ffe6cc;strokeColor=#d79b00;" parent="1" vertex="1">
                    <mxGeometry x="200" y="340" width="160" height="30" as="geometry"/>
                </mxCell>
                <mxCell id="16" value="Dropped Counter" style="rounded=0;whiteSpace=wrap;html=1;fillColor=#ffe6cc;strokeColor=#d79b00;" parent="1" vertex="1">
                    <mxGeometry x="200" y="370" width="160" height="30" as="geometry"/>
                </mxCell>
                <mxCell id="17" value="Next Free Body Offset" style="rounded=0;whiteSpace=wrap;html=1;fillColor=#ffe6cc;strokeColor=#d79b00;" parent="1" vertex="1">
                    <mxGeometry x="200" y="400" width="160" height="30" as="geometry"/>
                </mxCell>
                <mxCell id="18" value="Last Valid Body Offset" style="rounded=0;whiteSpace=wrap;html=1;fillColor=#ffe6cc;strokeColor=#d79b00;" parent="1" vertex="1">
                    <mxGeometry x="200" y="430" width="160" height="30" as="geometry"/>
                </mxCell>
                <mxCell id="19" value="Last Valid Body Offset" style="rounded=0;whiteSpace=wrap;html=1;fillColor=#ffe6cc;strokeColor=#d79b00;" parent="1" vertex="1">
                    <mxGeometry x="200" y="460" width="160" height="30" as="geometry"/>
                </mxCell>
                <mxCell id="20" value="Ringbuffer Section" style="rounded=0;whiteSpace=wrap;html=1;rotation=-90;fillColor=#ffe6cc;strokeColor=#d79b00;" parent="1" vertex="1">
                    <mxGeometry x="60" y="380" width="240" height="40" as="geometry"/>
                </mxCell>
                <mxCell id="21" value="Ringbuffer Body" style="rounded=0;whiteSpace=wrap;html=1;fillColor=#ffe6cc;strokeColor=#d79b00;" parent="1" vertex="1">
                    <mxGeometry x="200" y="490" width="160" height="30" as="geometry"/>
                </mxCell>
                <mxCell id="22" value="Stack Mutex" style="rounded=0;whiteSpace=wrap;html=1;fillColor=#f8cecc;strokeColor=#b85450;" parent="1" vertex="1">
                    <mxGeometry x="200" y="520" width="160" height="30" as="geometry"/>
                </mxCell>
                <mxCell id="23" value="Stack Body Size" style="rounded=0;whiteSpace=wrap;html=1;fillColor=#ffe6cc;strokeColor=#d79b00;" parent="1" vertex="1">
                    <mxGeometry x="200" y="550" width="160" height="30" as="geometry"/>
                </mxCell>
                <mxCell id="24" value="Stack Body" style="rounded=0;whiteSpace=wrap;html=1;fillColor=#ffe6cc;strokeColor=#d79b00;" parent="1" vertex="1">
                    <mxGeometry x="200" y="580" width="160" height="30" as="geometry"/>
                </mxCell>
                <mxCell id="29" value="Stack Section" style="rounded=0;whiteSpace=wrap;html=1;rotation=-90;fillColor=#ffe6cc;strokeColor=#d79b00;" parent="1" vertex="1">
                    <mxGeometry x="135" y="545" width="90" height="40" as="geometry"/>
                </mxCell>
                <mxCell id="31" value="" style="endArrow=classic;html=1;exitX=1;exitY=0.5;exitDx=0;exitDy=0;entryX=1;entryY=0;entryDx=0;entryDy=0;" parent="1" source="4" target="9" edge="1">
                    <mxGeometry width="50" height="50" relative="1" as="geometry">
                        <mxPoint x="480" y="310" as="sourcePoint"/>
                        <mxPoint x="400" y="280" as="targetPoint"/>
                        <Array as="points">
                            <mxPoint x="420" y="115"/>
                            <mxPoint x="420" y="220"/>
                        </Array>
                    </mxGeometry>
                </mxCell>
                <mxCell id="32" value="" style="endArrow=classic;html=1;exitX=1;exitY=0.5;exitDx=0;exitDy=0;entryX=1;entryY=0;entryDx=0;entryDy=0;" parent="1" source="5" target="12" edge="1">
                    <mxGeometry width="50" height="50" relative="1" as="geometry">
                        <mxPoint x="380" y="190.0000000000001" as="sourcePoint"/>
                        <mxPoint x="380" y="330.0000000000001" as="targetPoint"/>
                        <Array as="points">
                            <mxPoint x="400" y="145"/>
                            <mxPoint x="400" y="280"/>
                        </Array>
                    </mxGeometry>
                </mxCell>
                <mxCell id="33" value="" style="endArrow=classic;html=1;exitX=1;exitY=0.5;exitDx=0;exitDy=0;entryX=1;entryY=0;entryDx=0;entryDy=0;" parent="1" source="6" target="22" edge="1">
                    <mxGeometry width="50" height="50" relative="1" as="geometry">
                        <mxPoint x="540" y="440" as="sourcePoint"/>
                        <mxPoint x="590" y="390" as="targetPoint"/>
                        <Array as="points">
                            <mxPoint x="380" y="175"/>
                            <mxPoint x="380" y="520"/>
                        </Array>
                    </mxGeometry>
                </mxCell>
                <mxCell id="35" value="Stack Entry" style="rounded=0;whiteSpace=wrap;html=1;rotation=-90;fillColor=#ffe6cc;strokeColor=#d79b00;" parent="1" vertex="1">
                    <mxGeometry x="385" y="515" width="150" height="40" as="geometry"/>
                </mxCell>
                <mxCell id="36" value="md5 Hash" style="rounded=0;whiteSpace=wrap;html=1;fillColor=#ffe6cc;strokeColor=#d79b00;" parent="1" vertex="1">
                    <mxGeometry x="480" y="460" width="160" height="30" as="geometry"/>
                </mxCell>
                <mxCell id="37" value="Stack Entry Body Size" style="rounded=0;whiteSpace=wrap;html=1;fillColor=#ffe6cc;strokeColor=#d79b00;" parent="1" vertex="1">
                    <mxGeometry x="480" y="490" width="160" height="30" as="geometry"/>
                </mxCell>
                <mxCell id="38" value="Stack Entry Info Body" style="rounded=0;whiteSpace=wrap;html=1;fillColor=#ffe6cc;strokeColor=#d79b00;" parent="1" vertex="1">
                    <mxGeometry x="480" y="580" width="160" height="30" as="geometry"/>
                </mxCell>
                <mxCell id="39" value="Meta Entry" style="rounded=0;whiteSpace=wrap;html=1;rotation=-90;fillColor=#e1d5e7;strokeColor=#9673a6;" parent="1" vertex="1">
                    <mxGeometry x="620" y="470" width="240" height="40" as="geometry"/>
                </mxCell>
                <mxCell id="40" value="Meta Entry Magic" style="rounded=0;whiteSpace=wrap;html=1;fillColor=#e1d5e7;strokeColor=#9673a6;" parent="1" vertex="1">
                    <mxGeometry x="760" y="370" width="160" height="30" as="geometry"/>
                </mxCell>
                <mxCell id="41" value="Meta Entry Size" style="rounded=0;whiteSpace=wrap;html=1;fillColor=#e1d5e7;strokeColor=#9673a6;" parent="1" vertex="1">
                    <mxGeometry x="760" y="400" width="160" height="30" as="geometry"/>
                </mxCell>
                <mxCell id="42" value="Meta Entry Type" style="rounded=0;whiteSpace=wrap;html=1;fillColor=#e1d5e7;strokeColor=#9673a6;" parent="1" vertex="1">
                    <mxGeometry x="760" y="430" width="160" height="30" as="geometry"/>
                </mxCell>
                <mxCell id="43" value="Line Number" style="rounded=0;whiteSpace=wrap;html=1;fillColor=#e1d5e7;strokeColor=#9673a6;" parent="1" vertex="1">
                    <mxGeometry x="760" y="460" width="160" height="30" as="geometry"/>
                </mxCell>
                <mxCell id="44" value="Argument Count" style="rounded=0;whiteSpace=wrap;html=1;fillColor=#e1d5e7;strokeColor=#9673a6;" parent="1" vertex="1">
                    <mxGeometry x="760" y="490" width="160" height="30" as="geometry"/>
                </mxCell>
                <mxCell id="45" value="Argument Type Array" style="rounded=0;whiteSpace=wrap;html=1;fillColor=#e1d5e7;strokeColor=#9673a6;" parent="1" vertex="1">
                    <mxGeometry x="760" y="520" width="160" height="30" as="geometry"/>
                </mxCell>
                <mxCell id="46" value="File Name" style="rounded=0;whiteSpace=wrap;html=1;fillColor=#e1d5e7;strokeColor=#9673a6;" parent="1" vertex="1">
                    <mxGeometry x="760" y="550" width="160" height="30" as="geometry"/>
                </mxCell>
                <mxCell id="47" value="Format String" style="rounded=0;whiteSpace=wrap;html=1;fillColor=#e1d5e7;strokeColor=#9673a6;" parent="1" vertex="1">
                    <mxGeometry x="760" y="580" width="160" height="30" as="geometry"/>
                </mxCell>
                <mxCell id="48" value="Ringbuffer Entry" style="rounded=0;whiteSpace=wrap;html=1;rotation=-90;fillColor=#ffe6cc;strokeColor=#d79b00;" parent="1" vertex="1">
                    <mxGeometry x="385" y="295" width="150" height="40" as="geometry"/>
                </mxCell>
                <mxCell id="49" value="Ringbuffer Entry Magic" style="rounded=0;whiteSpace=wrap;html=1;fillColor=#ffe6cc;strokeColor=#d79b00;" parent="1" vertex="1">
                    <mxGeometry x="480" y="240" width="160" height="30" as="geometry"/>
                </mxCell>
                <mxCell id="50" value="Ringbuffer Entry Body Size" style="rounded=0;whiteSpace=wrap;html=1;fillColor=#ffe6cc;strokeColor=#d79b00;" parent="1" vertex="1">
                    <mxGeometry x="480" y="270" width="160" height="30" as="geometry"/>
                </mxCell>
                <mxCell id="51" value="Ringbuffer Entry Header CRC" style="rounded=0;whiteSpace=wrap;html=1;fillColor=#dae8fc;strokeColor=#6c8ebf;" parent="1" vertex="1">
                    <mxGeometry x="480" y="300" width="160" height="30" as="geometry"/>
                </mxCell>
                <mxCell id="53" value="Ringbuffer Entry Body" style="rounded=0;whiteSpace=wrap;html=1;fillColor=#ffe6cc;strokeColor=#d79b00;" parent="1" vertex="1">
                    <mxGeometry x="480" y="330" width="160" height="30" as="geometry"/>
                </mxCell>
                <mxCell id="54" value="Ringbuffer Entry Body CRC" style="rounded=0;whiteSpace=wrap;html=1;fillColor=#dae8fc;strokeColor=#6c8ebf;" parent="1" vertex="1">
                    <mxGeometry x="480" y="360" width="160" height="30" as="geometry"/>
                </mxCell>
                <mxCell id="55" value="Trace Entry" style="rounded=0;whiteSpace=wrap;html=1;rotation=-90;fillColor=#d5e8d4;strokeColor=#82b366;" parent="1" vertex="1">
                    <mxGeometry x="665" y="185" width="150" height="40" as="geometry"/>
                </mxCell>
                <mxCell id="57" value="Process Id" style="rounded=0;whiteSpace=wrap;html=1;fillColor=#d5e8d4;strokeColor=#82b366;" parent="1" vertex="1">
                    <mxGeometry x="760" y="160" width="160" height="30" as="geometry"/>
                </mxCell>
                <mxCell id="58" value="Thread Id" style="rounded=0;whiteSpace=wrap;html=1;fillColor=#d5e8d4;strokeColor=#82b366;" parent="1" vertex="1">
                    <mxGeometry x="760" y="190" width="160" height="30" as="geometry"/>
                </mxCell>
                <mxCell id="59" value="UTC Timestamp [ns]" style="rounded=0;whiteSpace=wrap;html=1;fillColor=#d5e8d4;strokeColor=#82b366;" parent="1" vertex="1">
                    <mxGeometry x="760" y="220" width="160" height="30" as="geometry"/>
                </mxCell>
                <mxCell id="60" value="User Argument Values Serialized" style="rounded=0;whiteSpace=wrap;html=1;fillColor=#d5e8d4;strokeColor=#82b366;" parent="1" vertex="1">
                    <mxGeometry x="760" y="250" width="160" height="30" as="geometry"/>
                </mxCell>
                <mxCell id="63" value="" style="shape=flexArrow;endArrow=classic;html=1;exitX=1;exitY=0.5;exitDx=0;exitDy=0;fillColor=#f5f5f5;strokeColor=#666666;" parent="1" source="53" target="55" edge="1">
                    <mxGeometry width="50" height="50" relative="1" as="geometry">
                        <mxPoint x="720" y="360" as="sourcePoint"/>
                        <mxPoint x="770" y="310" as="targetPoint"/>
                        <Array as="points">
                            <mxPoint x="680" y="345"/>
                            <mxPoint x="680" y="205"/>
                        </Array>
                    </mxGeometry>
                </mxCell>
                <mxCell id="69" value="contains&lt;br&gt;one" style="edgeLabel;html=1;align=center;verticalAlign=middle;resizable=0;points=[];rotation=-90;" parent="63" vertex="1" connectable="0">
                    <mxGeometry x="-0.157" y="2" relative="1" as="geometry">
                        <mxPoint x="2" y="-1" as="offset"/>
                    </mxGeometry>
                </mxCell>
                <mxCell id="64" value="" style="shape=flexArrow;endArrow=classic;html=1;exitX=1;exitY=0.5;exitDx=0;exitDy=0;entryX=0.5;entryY=0;entryDx=0;entryDy=0;fillColor=#f5f5f5;strokeColor=#666666;" parent="1" source="24" target="35" edge="1">
                    <mxGeometry width="50" height="50" relative="1" as="geometry">
                        <mxPoint x="440" y="930" as="sourcePoint"/>
                        <mxPoint x="490" y="880" as="targetPoint"/>
                        <Array as="points">
                            <mxPoint x="400" y="595"/>
                            <mxPoint x="400" y="535"/>
                        </Array>
                    </mxGeometry>
                </mxCell>
                <mxCell id="67" value="contains&lt;br style=&quot;border-color: var(--border-color);&quot;&gt;multiple" style="edgeLabel;html=1;align=center;verticalAlign=middle;resizable=0;points=[];rotation=-90;" parent="64" vertex="1" connectable="0">
                    <mxGeometry x="0.2149" y="1" relative="1" as="geometry">
                        <mxPoint x="1" y="15" as="offset"/>
                    </mxGeometry>
                </mxCell>
                <mxCell id="65" value="" style="shape=flexArrow;endArrow=classic;html=1;exitX=1;exitY=0.5;exitDx=0;exitDy=0;entryX=0.5;entryY=0;entryDx=0;entryDy=0;fillColor=#f5f5f5;strokeColor=#666666;" parent="1" source="71" target="39" edge="1">
                    <mxGeometry width="50" height="50" relative="1" as="geometry">
                        <mxPoint x="700" y="590" as="sourcePoint"/>
                        <mxPoint x="750" y="540" as="targetPoint"/>
                        <Array as="points">
                            <mxPoint x="690" y="565"/>
                            <mxPoint x="690" y="490"/>
                        </Array>
                    </mxGeometry>
                </mxCell>
                <mxCell id="68" value="contains&lt;br style=&quot;border-color: var(--border-color);&quot;&gt;multiple" style="edgeLabel;html=1;align=center;verticalAlign=middle;resizable=0;points=[];rotation=-90;" parent="65" vertex="1" connectable="0">
                    <mxGeometry x="-0.0264" y="-2" relative="1" as="geometry">
                        <mxPoint x="-2" y="15" as="offset"/>
                    </mxGeometry>
                </mxCell>
                <mxCell id="71" value="Stack Entry Body" style="rounded=0;whiteSpace=wrap;html=1;fillColor=#ffe6cc;strokeColor=#d79b00;" parent="1" vertex="1">
                    <mxGeometry x="480" y="550" width="160" height="30" as="geometry"/>
                </mxCell>
                <mxCell id="72" value="Stack Entry Info Size" style="rounded=0;whiteSpace=wrap;html=1;fillColor=#ffe6cc;strokeColor=#d79b00;" parent="1" vertex="1">
                    <mxGeometry x="480" y="520" width="160" height="30" as="geometry"/>
                </mxCell>
                <mxCell id="73" value="Meta File Offset" style="rounded=0;whiteSpace=wrap;html=1;fillColor=#d5e8d4;strokeColor=#82b366;" parent="1" vertex="1">
                    <mxGeometry x="760" y="130" width="160" height="30" as="geometry"/>
                </mxCell>
                <mxCell id="79" style="edgeStyle=none;html=1;entryX=1;entryY=0;entryDx=0;entryDy=0;exitX=1;exitY=0.5;exitDx=0;exitDy=0;" parent="1" source="73" target="40" edge="1">
                    <mxGeometry relative="1" as="geometry">
                        <Array as="points">
                            <mxPoint x="970" y="145"/>
                            <mxPoint x="970" y="370"/>
                        </Array>
                        <mxPoint x="920" y="360" as="targetPoint"/>
                        <mxPoint x="970" y="140" as="sourcePoint"/>
                    </mxGeometry>
                </mxCell>
                <mxCell id="80" value="File Version" style="rounded=0;whiteSpace=wrap;html=1;fillColor=#ffe6cc;strokeColor=#d79b00;" parent="1" vertex="1">
                    <mxGeometry x="200" y="70" width="160" height="30" as="geometry"/>
                </mxCell>
                <mxCell id="81" value="library internal data" style="rounded=0;whiteSpace=wrap;html=1;fillColor=#ffe6cc;strokeColor=#d79b00;" parent="1" vertex="1">
                    <mxGeometry x="270" y="630" width="120" height="20" as="geometry"/>
                </mxCell>
                <mxCell id="82" value="check sums" style="rounded=0;whiteSpace=wrap;html=1;fillColor=#dae8fc;strokeColor=#6c8ebf;" parent="1" vertex="1">
                    <mxGeometry x="530" y="630" width="120" height="20" as="geometry"/>
                </mxCell>
                <mxCell id="83" value="ipc mutexes" style="rounded=0;whiteSpace=wrap;html=1;fillColor=#f8cecc;strokeColor=#b85450;" parent="1" vertex="1">
                    <mxGeometry x="400" y="630" width="120" height="20" as="geometry"/>
                </mxCell>
                <mxCell id="84" value="static data" style="rounded=0;whiteSpace=wrap;html=1;fillColor=#e1d5e7;strokeColor=#9673a6;" parent="1" vertex="1">
                    <mxGeometry x="790" y="630" width="120" height="20" as="geometry"/>
                </mxCell>
                <mxCell id="85" value="dynamic data" style="rounded=0;whiteSpace=wrap;html=1;fillColor=#d5e8d4;strokeColor=#82b366;" parent="1" vertex="1">
                    <mxGeometry x="660" y="630" width="120" height="20" as="geometry"/>
                </mxCell>
                <mxCell id="86" value="Copyright (c) 2024, International Business Machines&lt;br style=&quot;font-size: 10px;&quot;&gt;SPDX-License-Identifier: BSD-2-Clause-Patent" style="rounded=1;whiteSpace=wrap;html=1;fontSize=10;fontColor=default;fillColor=none;strokeColor=none;" vertex="1" parent="1">
                    <mxGeometry x="470" y="660" width="240" height="20" as="geometry"/>
                </mxCell>
            </root>
        </mxGraphModel>
    </diagram>
</mxfile>